.
 
http://www.scenetime.com    -   SceneTime [ We been having it ] !!!


How come you press harder on a remote control when you know the battery is dead? so you better seed to get speed ;)

        Seed back for speed


...................................NFO:.................................................General
Complete name                    : White Irish Drinkers 2010 BRRIP XVID AC3-5.1 - SCR0N.avi
Format                           : AVI
Format/Info                      : Audio Video Interleave
Format profile                   : OpenDML
File size                        : 1.37 GiB
Duration                         : 1h 49mn
Overall bit rate                 : 1 784 Kbps

Video
ID                               : 0
Format                           : MPEG-4 Visual
Format profile                   : Advanced Simple@L5
Format settings, BVOP            : Yes
Format settings, QPel            : No
Format settings, GMC             : No warppoints
Format settings, Matrix          : Default (H.263)
Codec ID                         : XVID
Codec ID/Hint                    : XviD
Duration                         : 1h 49mn
Bit rate                         : 1 330 Kbps
Width                            : 720 pixels
Height                           : 304 pixels
Display aspect ratio             : 2.35:1
Frame rate                       : 23.976 fps
Color space                      : YUV
Chroma subsampling               : 4:2:0
Bit depth                        : 8 bits
Scan type                        : Progressive
Bits/(Pixel*Frame)               : 0.254
Stream size                      : 1.02 GiB (75%)
Writing library                  : XviD 1.2.1 (UTC 2008-12-04)

Audio
ID                               : 1
Format                           : AC-3
Format/Info                      : Audio Coding 3
Mode extension                   : CM (complete main)
Codec ID                         : 2000
Duration                         : 1h 49mn
Bit rate mode                    : Constant
Bit rate                         : 448 Kbps
Channel(s)                       : 6 channels
Channel positions                : Front: L C R, Side: L R, LFE
Sampling rate                    : 48.0 KHz
Bit depth                        : 16 bits
Stream size                      : 352 MiB (25%)
Alignment                        : Aligned on interleaves
Interleave, duration             : 64 ms (1.53 video frames)
Interleave, preload duration     : 192 ms